<svg xmlns="http://www.w3.org/2000/svg" width="1000" height="1080" viewBox="0 0 1000 1080" version="1.1">
	<path d="M 283.110 163.829 C 164.645 232.407, 67.722 288.955, 67.725 289.493 C 67.733 291.037, 281.226 413.174, 283.073 412.691 C 283.977 412.455, 357.430 370.583, 446.301 319.643 L 607.885 227.026 768.692 319.158 C 857.137 369.831, 930.288 411.503, 931.250 411.762 C 932.903 412.207, 933 408.813, 933 350.629 L 933 289.025 929.250 286.691 C 921.543 281.894, 501.439 40.097, 500 39.630 C 499.168 39.360, 402.563 94.679, 283.110 163.829 M 445.500 446.542 C 355.850 498.496, 281.825 540.849, 281 540.660 C 280.175 540.471, 231.859 512.795, 173.632 479.158 C 115.405 445.521, 67.480 418, 67.132 418 C 66.381 418, 66.731 492.918, 67.615 521.500 L 68.234 541.500 237.932 639.250 C 331.265 693.013, 408.220 737, 408.941 737 C 409.662 737, 482.758 695.049, 571.376 643.774 C 659.994 592.500, 733.400 550.544, 734.500 550.537 C 735.600 550.531, 780.035 575.621, 833.245 606.292 C 886.455 636.964, 930.668 662.319, 931.495 662.637 C 932.825 663.147, 933 656.003, 933 601.240 L 933 539.267 772.313 445.991 C 683.934 394.689, 610.922 352.572, 610.063 352.397 C 609.203 352.222, 535.150 394.587, 445.500 446.542 M 67.242 727.988 L 67.500 790.149 283.410 914.574 C 402.160 983.008, 499.706 1039, 500.178 1039 C 501.202 1039, 929.959 791.216, 931.714 789.611 C 932.627 788.774, 906.485 773.515, 825.907 727.852 L 718.887 667.205 556.194 760.203 C 411.442 842.945, 393.224 853.097, 391 852.254 C 389.016 851.503, 82.626 675.314, 70.242 667.803 L 66.985 665.827 67.242 727.988" stroke="none" fill="#000000" fill-rule="evenodd"/>
</svg>