<svg version="1.0" xmlns="http://www.w3.org/2000/svg"
 width="240.000000pt" height="213.000000pt" viewBox="0 0 240.000000 213.000000"
 preserveAspectRatio="xMidYMid meet">
<metadata>
Created by potrace 1.10, written by Peter Selinger 2001-2011
</metadata>
<g transform="translate(0.000000,213.000000) scale(0.100000,-0.100000)"
fill="#000000" stroke="none">
<path d="M614 2043 c-9 -7 -22 -22 -28 -35 -32 -59 -69 -126 -86 -153 -19 -31
-26 -43 -74 -130 -15 -27 -36 -63 -47 -80 -10 -16 -23 -39 -29 -50 -6 -11 -19
-33 -30 -50 -11 -16 -26 -43 -34 -60 -8 -16 -29 -52 -45 -80 -17 -27 -35 -59
-41 -70 -5 -11 -14 -27 -20 -35 -22 -35 -100 -172 -100 -178 0 -3 -7 -14 -17
-24 -23 -26 -19 -69 12 -114 15 -21 31 -48 36 -59 5 -11 13 -27 19 -35 14 -22
95 -162 103 -180 4 -8 16 -28 27 -45 10 -16 30 -50 42 -75 13 -25 41 -71 61
-102 21 -32 42 -68 47 -80 6 -13 19 -36 30 -53 11 -16 24 -39 30 -50 5 -11 25
-47 44 -80 19 -33 45 -79 58 -103 12 -24 28 -48 35 -53 8 -7 202 -11 585 -11
l573 0 20 26 c12 15 33 50 49 79 15 28 36 66 46 82 10 17 31 53 46 80 49 89
55 100 74 130 11 17 23 37 27 45 8 18 89 158 103 180 6 8 15 24 20 35 6 11 19
34 30 50 11 17 23 37 27 45 4 8 26 47 48 85 23 39 45 77 49 85 4 8 13 26 21
40 17 30 11 61 -23 109 -13 20 -28 45 -33 56 -5 11 -18 34 -29 50 -10 17 -30
50 -42 75 -13 25 -36 64 -51 88 -15 23 -37 59 -48 80 -11 20 -24 44 -29 52
-42 68 -93 157 -101 174 -5 12 -18 35 -29 51 -11 17 -24 39 -30 50 -5 11 -25
47 -44 80 -19 33 -45 79 -58 103 -12 24 -31 48 -41 53 -28 16 -1132 17 -1153
2z m1074 -107 c38 -20 64 -51 102 -121 57 -105 82 -149 115 -200 18 -27 38
-62 46 -77 12 -22 108 -191 169 -297 8 -14 30 -51 48 -82 17 -31 35 -76 38
-100 5 -39 0 -52 -35 -113 -23 -37 -41 -74 -41 -82 0 -7 -6 -17 -14 -21 -7 -4
-28 -35 -46 -68 -18 -33 -41 -71 -51 -84 -11 -13 -19 -27 -19 -31 0 -11 -84
-156 -112 -192 -14 -18 -37 -58 -52 -88 -45 -94 -82 -154 -116 -188 l-33 -32
-493 0 c-271 0 -500 3 -508 6 -14 5 -106 135 -106 149 0 2 -14 28 -32 57 -17
29 -40 69 -50 88 -10 19 -36 62 -58 95 -22 33 -45 71 -52 85 -7 14 -39 69 -70
122 -32 53 -58 100 -58 103 0 4 -13 25 -28 48 -32 46 -62 118 -62 145 0 19 36
93 80 167 17 28 37 64 45 80 9 17 29 50 45 75 16 25 39 63 51 85 12 22 27 47
34 55 7 8 34 56 60 105 26 50 67 119 90 155 23 36 45 75 49 86 8 25 30 47 71
68 26 14 93 16 498 16 383 0 473 -3 495 -14z"/>
</g>
</svg>
