<svg xmlns="http://www.w3.org/2000/svg" width="61" height="79" viewBox="0 0 61 79" version="1.1">
	<path d="M 37.500 4.457 L 30.500 8.738 22.931 4.676 L 15.362 0.614 7.693 5.057 C 3.475 7.501, 0.019 9.790, 0.012 10.144 C -0 10.789, 27.660 26.619, 29.805 27.194 C 31.169 27.560, 61.956 9.856, 61.982 8.691 C 61.992 8.246, 61.633 8.109, 61.184 8.386 C 60.735 8.663, 56.859 6.890, 52.569 4.445 C 48.280 2, 44.709 0.040, 44.635 0.088 C 44.561 0.137, 41.350 2.103, 37.500 4.457 M 9.250 6.275 C 6.362 8.039, 4 9.782, 4 10.148 C 4 10.662, 29.605 25.500, 30.492 25.500 C 30.604 25.500, 36.790 21.911, 44.239 17.525 L 57.782 9.549 51.874 6.275 C 48.624 4.474, 45.489 3, 44.908 3 C 44.326 3, 40.797 4.813, 37.067 7.030 L 30.284 11.059 23.173 7.030 C 19.261 4.813, 15.710 3.015, 15.281 3.034 C 14.851 3.052, 12.138 4.511, 9.250 6.275 M 7.706 30.602 C 3.468 33.058, 0.016 35.390, 0.036 35.784 C 0.074 36.553, 29.160 53, 30.481 53 C 32.353 53, 60.089 35.767, 59.768 34.803 C 59.573 34.218, 56.155 31.948, 52.174 29.759 L 44.935 25.779 37.718 30.002 L 30.500 34.225 22.956 30.180 L 15.413 26.135 7.706 30.602 M 9.166 31.977 L 2.916 35.736 16.572 43.413 C 24.082 47.636, 30.538 50.958, 30.917 50.795 C 33.427 49.720, 56.998 35.477, 56.988 35.041 C 56.982 34.744, 54.280 33.019, 50.984 31.208 L 44.991 27.917 38.071 31.958 C 31.016 36.079, 29.133 36.647, 27.450 35.162 C 26.927 34.702, 24.006 32.951, 20.958 31.271 L 15.416 28.217 9.166 31.977 M 37.501 55.545 L 30.503 59.868 22.899 55.760 L 15.295 51.653 7.660 56.077 C 3.460 58.509, 0.019 60.796, 0.012 61.157 C -0.003 61.981, 28.991 78.333, 30.467 78.333 C 32.169 78.333, 61.964 60.607, 61.983 59.583 C 61.992 59.079, 61.711 58.955, 61.358 59.308 C 61.005 59.661, 57.068 57.986, 52.608 55.586 L 44.500 51.222 37.501 55.545 M 8.662 57.675 L 2.823 61.192 16.162 68.673 C 23.498 72.787, 29.781 76.231, 30.125 76.327 C 30.469 76.422, 36.844 72.917, 44.292 68.539 L 57.833 60.578 51.899 57.289 C 48.636 55.480, 45.489 54, 44.908 54 C 44.326 54, 40.760 55.835, 36.984 58.079 L 30.119 62.157 23.135 58.079 C 19.294 55.835, 15.780 54.035, 15.326 54.079 C 14.871 54.122, 11.873 55.740, 8.662 57.675" stroke="none" fill="#000000" fill-rule="evenodd"/>
</svg>